# xmcd CD database file
#
# Track frame offsets:
#	150
#	7479
#	20300
#	35017
#	50666
#	65856
#	81944
#	93780
#	122093
#	136434
#	149226
#	163486
#	179344
#	198891
#	218026
#
# Disc length: 2996 seconds
#
# Revision: 0
# Processed by: cddbd v1.5.2PL0 Copyright (c) Steve Scherf et al.
# Submitted via: CDex 1.51
#
DISCID=ea0bb20f
DTITLE=Giovanni Mirabassi - Cantopiano
DYEAR=2006
DGENRE=Jazz
TTITLE0=Il venait d'avoir dix-huit ans
TTITLE1=Manon
TTITLE2=J'ai pas le temps d'avoir trente ans
TTITLE3=c'que t'es belle
TTITLE4=La canzone di marinella
TTITLE5=Quand maman reviendra
TTITLE6=Cecile ma fille
TTITLE7=La fleur du large
TTITLE8=Sans titre
TTITLE9=Le chaland qui passe
TTITLE10=Les passantes
TTITLE11=J'aimerais tant savoir comment tu te reveilles
TTITLE12=Si tu me payes un verre
TTITLE13=Une ile
TTITLE14=Dis quand reviendras-tu
EXTD=YEAR: 2006
EXTT0=
EXTT1=
EXTT2=
EXTT3=
EXTT4=
EXTT5=
EXTT6=
EXTT7=
EXTT8=
EXTT9=
EXTT10=
EXTT11=
EXTT12=
EXTT13=
EXTT14=
PLAYORDER=
